# xmcd CD database file
#
# Track frame offsets:
#	150
#	4135
#	74015
#	126098
#	162215
#	222120
#
# Disc length: 4669 seconds
#
# Revision: 0
# Processed by: cddbd v1.4PL0 Copyright (c) Steve Scherf et al.
# Submitted via: CDex 1.50
#
DISCID=50123b06
DTITLE=Alvin Jones - Live At The Lighthouse [CD2 of 2)
DYEAR=1990
DGENRE=Jazz
TTITLE0=Happy Birthday
TTITLE1=Sweet Mama
TTITLE2=I'm a Fool to Want You
TTITLE3=Children, Save the Children
TTITLE4=Brite Piece
TTITLE5=Children's Merry-Go-Round March
EXTD=YEAR: 1990
EXTT0=
EXTT1=
EXTT2=
EXTT3=
EXTT4=
EXTT5=
PLAYORDER=
